name Run_40002_IK.mot
datacolumns 164
datarows 4
range 1.21 1.24
endheader
time	         pelvis_tilt	         pelvis_list	     pelvis_rotation	           pelvis_tx	           pelvis_ty	           pelvis_tz	       hip_flexion_r	     hip_adduction_r	      hip_rotation_r	        knee_angle_r	       ankle_angle_r	       hip_flexion_l	     hip_adduction_l	      hip_rotation_l	        knee_angle_l	       ankle_angle_l	    lumbar_extension	      lumbar_bending	     lumbar_rotation	          arm_flex_r	           arm_add_r	           arm_rot_r	        elbow_flex_r	           pro_sup_r	          arm_flex_l	           arm_add_l	           arm_rot_l	        elbow_flex_l	           pro_sup_l	    subtalar_angle_r	         mtp_angle_r	    subtalar_angle_l	         mtp_angle_l	        wrist_flex_r	         wrist_dev_r	        wrist_flex_l	         wrist_dev_l	             LASI_tx	             LASI_ty	             LASI_tz	             RASI_tx	             RASI_ty	             RASI_tz	             LPSI_tx	             LPSI_ty	             LPSI_tz	             RPSI_tx	             RPSI_ty	             RPSI_tz	             RTH1_tx	             RTH1_ty	             RTH1_tz	             RTH2_tx	             RTH2_ty	             RTH2_tz	             RTH3_tx	             RTH3_ty	             RTH3_tz	             LTH1_tx	             LTH1_ty	             LTH1_tz	             LTH2_tx	             LTH2_ty	             LTH2_tz	             LTH3_tx	             LTH3_ty	             LTH3_tz	             RTB1_tx	             RTB1_ty	             RTB1_tz	             RTB2_tx	             RTB2_ty	             RTB2_tz	             RTB3_tx	             RTB3_ty	             RTB3_tz	             LTB1_tx	             LTB1_ty	             LTB1_tz	             LTB2_tx	             LTB2_ty	             LTB2_tz	             LTB3_tx	             LTB3_ty	             LTB3_tz	             RCAL_tx	             RCAL_ty	             RCAL_tz	             RTOE_tx	             RTOE_ty	             RTOE_tz	             RMT5_tx	             RMT5_ty	             RMT5_tz	             LCAL_tx	             LCAL_ty	             LCAL_tz	             LTOE_tx	             LTOE_ty	             LTOE_tz	             LMT5_tx	             LMT5_ty	             LMT5_tz	             LACR_tx	             LACR_ty	             LACR_tz	             RACR_tx	             RACR_ty	             RACR_tz	             CLAV_tx	             CLAV_ty	             CLAV_tz	               C7_tx	               C7_ty	               C7_tz	             RUA1_tx	             RUA1_ty	             RUA1_tz	             RUA2_tx	             RUA2_ty	             RUA2_tz	             RUA3_tx	             RUA3_ty	             RUA3_tz	             RLEL_tx	             RLEL_ty	             RLEL_tz	             RMEL_tx	             RMEL_ty	             RMEL_tz	             LUA1_tx	             LUA1_ty	             LUA1_tz	             LUA2_tx	             LUA2_ty	             LUA2_tz	             LUA3_tx	             LUA3_ty	             LUA3_tz	             LLEL_tx	             LLEL_ty	             LLEL_tz	             LMEL_tx	             LMEL_ty	             LMEL_tz	      RFAsuperior_tx	      RFAsuperior_ty	      RFAsuperior_tz	        RFAradius_tx	        RFAradius_ty	        RFAradius_tz	          RFAulna_tx	          RFAulna_ty	          RFAulna_tz	      LFAsuperior_tx	      LFAsuperior_ty	      LFAsuperior_tz	        LFAradius_tx	        LFAradius_ty	        LFAradius_tz	          LFAulna_tx	          LFAulna_ty	          LFAulna_tz	
1.21	        -11.38057574	          0.47740223	          4.86389485	          1.00726372	          1.03348110	         -0.34982318	         -2.32590707	          4.07546693	         -3.46723490	        -68.04778520	        -18.28893008	         35.38120403	          8.77256092	          2.15902096	        -12.17596243	          4.35770709	          0.32795306	         -0.13484099	          9.58371234	        -22.55398299	        -21.92185862	         -6.64293385	        115.18889840	        114.70314698	        -49.74313263	        -12.24040026	        -15.57030580	        121.80161183	        104.14917213	          0.00000000	          0.00000000	          0.00000000	          0.00000000	          0.00000000	          0.00000000	          0.00000000	          0.00000000	          1.00971684	          1.07890055	         -0.47274595	          1.03274158	          1.06489207	         -0.22376146	          0.85799055	          1.13236356	         -0.39380199	          0.87103333	          1.12614009	         -0.28103682	          0.94702562	          0.94294096	         -0.17546456	          0.85406070	          0.81490434	         -0.19376890	          0.84903670	          0.65993343	         -0.21627542	          0.97117229	          0.95012990	         -0.52852302	          0.96058102	          0.78620970	         -0.47157479	          1.05782041	          0.67913288	         -0.46901529	          0.69612080	          0.47349938	         -0.28978821	          0.63482951	          0.53923548	         -0.21890071	          0.50367853	          0.46261628	         -0.29029560	          1.18398792	          0.48770796	         -0.40004275	          1.12057490	          0.36032391	         -0.43649814	          1.20324082	          0.27266183	         -0.37401243	          0.38058612	          0.55838040	         -0.26014282	          0.33843204	          0.33870734	         -0.35348923	          0.30414398	          0.35976517	         -0.25613860	          1.11867650	          0.10678309	         -0.33060035	          1.34429532	          0.17828526	         -0.32751777	          1.31033077	          0.09971754	         -0.40022660	          0.96305670	          1.57053729	         -0.49347130	          1.04836756	          1.53596266	         -0.19031447	          1.07052344	          1.50606388	         -0.32883704	          0.94889328	          1.57584652	         -0.33040807	          0.96447894	          1.44222920	         -0.10068038	          1.01492394	          1.38322937	         -0.08636528	          0.96586802	          1.30944244	         -0.02584064	          0.94434690	          1.24855310	          0.00821271	          0.91381866	          1.22284149	         -0.07328615	          0.83314678	          1.52263983	         -0.51311399	          0.82378595	          1.44612062	         -0.55139342	          0.72876076	          1.41685928	         -0.54584127	          0.68478097	          1.35859763	         -0.55726277	          0.69539154	          1.33041277	         -0.47163191	          1.03616869	          1.20803866	         -0.03720148	          1.14212021	          1.20360490	         -0.18346859	          1.15027510	          1.15403825	         -0.13617563	          0.73362225	          1.29459593	         -0.57747596	          0.91688066	          1.24689056	         -0.54886741	          0.88343942	          1.19212055	         -0.58148635	
1.22	        -11.61835152	          0.50039077	          5.01112301	          1.00646623	          1.02582810	         -0.35048412	          0.05759862	          3.32191898	         -4.33950894	        -74.18016165	        -17.11636160	         34.86831387	          8.90209862	          1.84877028	        -12.94278610	          3.49243735	          0.66285218	         -0.25384332	          8.93224036	        -23.52125458	        -21.92511032	         -7.03956916	        112.26276215	        114.64635689	        -48.72317367	        -12.02015338	        -15.64982587	        121.30821416	        104.39431121	          0.00000000	          0.00000000	          0.00000000	          0.00000000	          0.00000000	          0.00000000	          0.00000000	          0.00000000	          1.00938957	          1.07151194	         -0.47301651	          1.03288394	          1.05753469	         -0.22539917	          0.85768563	          1.12514721	         -0.39351054	          0.87055633	          1.11915563	         -0.28082645	          0.94550400	          0.93661644	         -0.17692846	          0.85743765	          0.80628456	         -0.19514120	          0.85802347	          0.65076243	         -0.21447878	          0.96847712	          0.94223501	         -0.52876182	          0.95702890	          0.77873151	         -0.47001828	          1.05330146	          0.67096107	         -0.46727421	          0.70715759	          0.47088981	         -0.28640678	          0.65013630	          0.54149720	         -0.21666039	          0.51447772	          0.47285145	         -0.28677244	          1.17467527	          0.47580760	         -0.39951997	          1.10768395	          0.35015870	         -0.43553435	          1.18833534	          0.26023586	         -0.37368072	          0.39700160	          0.57706998	         -0.25830499	          0.34349596	          0.35798781	         -0.34736076	          0.30991333	          0.38294365	         -0.25078670	          1.09932504	          0.09820413	         -0.32877231	          1.32686186	          0.16181009	         -0.32797329	          1.29380863	          0.08027444	         -0.39922938	          0.96298999	          1.56238411	         -0.49535129	          1.04694463	          1.52886175	         -0.19052545	          1.06992201	          1.49927042	         -0.32936337	          0.94807254	          1.56939450	         -0.33205543	          0.96041620	          1.43650712	         -0.10161421	          1.00993664	          1.37683214	         -0.08588299	          0.95954881	          1.30415037	         -0.02545608	          0.93656064	          1.24476720	          0.00927258	          0.90679009	          1.21827250	         -0.07223675	          0.83308296	          1.51280935	         -0.51638678	          0.82558165	          1.43511548	         -0.55354968	          0.73125443	          1.40380212	         -0.54868936	          0.68817441	          1.34526066	         -0.56005395	          0.69880521	          1.31751719	         -0.47436960	          1.02735459	          1.19871919	         -0.03295259	          1.13645027	          1.18273812	         -0.17622139	          1.14062693	          1.13462947	         -0.12705562	          0.73787301	          1.28189085	         -0.57979631	          0.92177714	          1.23646379	         -0.55066619	          0.88893166	          1.18160803	         -0.58381694	
1.23	        -11.82494589	          0.53500372	          4.96448135	          1.00563944	          1.01747033	         -0.35085962	          2.45661869	          2.46347663	         -4.92559634	        -80.01325080	        -15.12898992	         34.38989072	          8.82134518	          0.91279411	        -14.32562377	          1.67034323	          0.97035251	         -0.39157907	          8.35329709	        -24.44489315	        -21.93663530	         -7.40638482	        109.12487762	        114.95683997	        -47.56251070	        -11.82929860	        -15.66813266	        120.62575492	        104.63786110	          0.00000000	          0.00000000	          0.00000000	          0.00000000	          0.00000000	          0.00000000	          0.00000000	          0.00000000	          1.00936083	          1.06308776	         -0.47306721	          1.03246438	          1.04974102	         -0.22689965	          0.85758569	          1.11691618	         -0.39339752	          0.86982020	          1.11139445	         -0.28082045	          0.94366248	          0.92985533	         -0.17890346	          0.86063612	          0.79727778	         -0.19718251	          0.86741113	          0.64112473	         -0.21216582	          0.96659853	          0.93359280	         -0.52766100	          0.95315115	          0.77025326	         -0.46838225	          1.04837252	          0.66170402	         -0.46625322	          0.71958961	          0.46701297	         -0.28171155	          0.66676653	          0.54313486	         -0.21402397	          0.52765959	          0.48102380	         -0.28266952	          1.16436883	          0.46204338	         -0.39989207	          1.09292581	          0.33860509	         -0.43516362	          1.17108829	          0.24607106	         -0.37410568	          0.41435559	          0.59312451	         -0.25723828	          0.35395922	          0.37350079	         -0.34048158	          0.32067482	          0.40235480	         -0.24493366	          1.07601732	          0.09272221	         -0.32681377	          1.30619767	          0.13916594	         -0.32905913	          1.27076779	          0.05859580	         -0.40005360	          0.96312205	          1.55297133	         -0.49735309	          1.04496993	          1.52121619	         -0.19068046	          1.06902955	          1.49161903	         -0.32984435	          0.94703496	          1.56178310	         -0.33388726	          0.95597252	          1.43009499	         -0.10262063	          1.00446779	          1.36949034	         -0.08587838	          0.95260364	          1.29807772	         -0.02540098	          0.92804727	          1.24042187	          0.01006130	          0.89917748	          1.21310792	         -0.07136018	          0.83336090	          1.50165209	         -0.52016747	          0.82805193	          1.42274566	         -0.55621315	          0.73441302	          1.38933165	         -0.55215504	          0.69237717	          1.33053866	         -0.56370295	          0.70288479	          1.30317059	         -0.47793155	          1.01762975	          1.18879514	         -0.02822306	          1.12914803	          1.16044379	         -0.16813810	          1.12932755	          1.11446668	         -0.11685019	          0.74299916	          1.26761476	         -0.58291194	          0.92733422	          1.22444692	         -0.55259149	          0.89523988	          1.16943481	         -0.58627449	
1.24	        -12.01514209	          0.71754207	          4.81272806	          1.00465491	          1.00861560	         -0.35097874	          4.93874903	          1.40389083	         -5.26946135	        -85.59731896	        -12.60364670	         34.17638334	          8.81793846	         -0.56404867	        -16.73645434	          0.24268711	          1.22597151	         -0.73104379	          7.70939864	        -25.21899382	        -21.91825991	         -7.65725946	        105.76783082	        115.95298491	        -46.28088028	        -11.66203109	        -15.68468621	        119.74326607	        104.72708665	          0.00000000	          0.00000000	          0.00000000	          0.00000000	          0.00000000	          0.00000000	          0.00000000	          0.00000000	          1.00933448	          1.05412996	         -0.47316775	          1.03161360	          1.04157548	         -0.22740071	          0.85752026	          1.10812364	         -0.39348195	          0.86885676	          1.10285053	         -0.28102761	          0.94242357	          0.92225621	         -0.18024983	          0.86421410	          0.78734178	         -0.19884522	          0.87741350	          0.63081295	         -0.20914279	          0.96571412	          0.92436860	         -0.52528260	          0.94886624	          0.76091278	         -0.46750954	          1.04326422	          0.65160786	         -0.46654918	          0.73341530	          0.46200672	         -0.27626596	          0.68481650	          0.54368393	         -0.21131198	          0.54305699	          0.48702519	         -0.27844378	          1.15438888	          0.44785862	         -0.40035193	          1.07773225	          0.32699091	         -0.43399648	          1.15208966	          0.23182092	         -0.37264879	          0.43281500	          0.60637921	         -0.25684720	          0.36869872	          0.38522767	         -0.33308796	          0.33585255	          0.41787469	         -0.23853894	          1.04867077	          0.09106677	         -0.32286293	          1.28161281	          0.11386855	         -0.32827310	          1.24046831	          0.04101504	         -0.40178743	          0.96366138	          1.54251699	         -0.49961424	          1.04237293	          1.51303416	         -0.19099242	          1.06808577	          1.48324119	         -0.33022871	          0.94572771	          1.55281591	         -0.33590951	          0.95093300	          1.42313966	         -0.10397605	          0.99853408	          1.36166792	         -0.08612596	          0.94512692	          1.29148261	         -0.02583828	          0.91884099	          1.23561337	          0.01047302	          0.89083244	          1.20745831	         -0.07067895	          0.83417780	          1.48923218	         -0.52440970	          0.83135502	          1.40918024	         -0.55943560	          0.73839487	          1.37364303	         -0.55623856	          0.69754197	          1.31460741	         -0.56816469	          0.70776724	          1.28761491	         -0.48220040	          1.00695634	          1.17841979	         -0.02314065	          1.12013517	          1.13699634	         -0.15969815	          1.11639137	          1.09404327	         -0.10576372	          0.74908076	          1.25195188	         -0.58676525	          0.93362135	          1.21087362	         -0.55469379	          0.90237479	          1.15560099	         -0.58868991	
